<svg width="200" height="37" viewBox="0 0 200 37" fill="none" xmlns="http://www.w3.org/2000/svg">
<g clip-path="url(#clip0)">
<path d="M1.8402 3.40063H0V36.0362H1.8402V3.40063Z" fill="#2D83C5"/>
<path d="M5.51043 3.40063H3.67529V36.0362H5.51043V3.40063Z" fill="#2D83C5"/>
<path d="M9.18585 3.40063H7.35071V36.0362H9.18585V3.40063Z" fill="#2D83C5"/>
<path d="M22.0571 3.40063H20.2169V36.0362H22.0571V3.40063Z" fill="#2D83C5"/>
<path d="M25.7324 3.40063H23.8922V36.0362H25.7324V3.40063Z" fill="#2D83C5"/>
<path d="M29.4077 3.40063H27.5675V36.0362H29.4077V3.40063Z" fill="#2D83C5"/>
<path d="M5.48517 3.40063L5.51551 3.42082V5.51983L4.18591 4.44509L5.48517 3.40063Z" fill="#2D83C5"/>
<path d="M22.0571 16.7771V18.8761L20.2169 17.3926L7.35071 7.00355V4.90454L22.0571 16.7771Z" fill="#2D83C5"/>
<path d="M25.7324 19.7439V21.8429L23.8922 20.3595V18.2605L25.7324 19.7439Z" fill="#2D83C5"/>
<path d="M29.4077 22.7158V24.8148L27.5675 23.3263V21.2273L29.4077 22.7158Z" fill="#2D83C5"/>
<path d="M1.5874 6.54419L1.84018 6.34741V6.75107L1.5874 6.54419Z" fill="#2D83C5"/>
<path d="M3.67529 6.1355L5.51549 7.61893V9.71795L3.67529 8.23451V6.1355Z" fill="#2D83C5"/>
<path d="M20.2169 19.4914L22.0571 20.9748V23.0738L20.2169 21.5904L9.1909 12.6847L7.35071 11.2013V9.10229L20.2169 19.4914Z" fill="#2D83C5"/>
<path d="M25.7324 23.9419V26.0409L23.8922 24.5575V22.4585L25.7324 23.9419Z" fill="#2D83C5"/>
<path d="M29.4077 26.9138V29.0128L27.5675 27.5243V25.4253L29.4077 26.9138Z" fill="#2D83C5"/>
<path d="M0.288163 7.59863L1.8402 8.84997V10.9439L0 9.4605V7.83073L0.288163 7.59863Z" fill="#2D83C5"/>
<path d="M3.67529 10.3335L5.51549 11.8169V13.9159L3.67529 12.4325V10.3335Z" fill="#2D83C5"/>
<path d="M20.2169 23.6894L22.0571 25.1728V27.2718L20.2169 25.7884L7.35071 15.3993V13.3003L9.1909 14.7837L20.2169 23.6894Z" fill="#2D83C5"/>
<path d="M25.7324 28.1397V30.2387L23.8922 28.7553V26.6562L25.7324 28.1397Z" fill="#2D83C5"/>
<path d="M28.8617 30.6728L27.5675 31.7173V29.6233L28.8617 30.6728Z" fill="#2D83C5"/>
<path d="M146.195 20.6874C146.203 18.8646 146.546 17.0588 147.206 15.3591C147.868 13.6045 148.864 11.994 150.138 10.6161C151.462 9.19314 153.055 8.04441 154.824 7.23552C156.797 6.34545 158.943 5.90259 161.108 5.93877C163.64 5.88077 166.14 6.50291 168.348 7.74009C169.816 8.57231 171.092 9.70349 172.094 11.0602C172.217 11.2269 172.305 11.4163 172.354 11.6174C172.402 11.8185 172.411 12.0273 172.378 12.2316C172.345 12.4359 172.271 12.6316 172.162 12.8073C172.052 12.983 171.909 13.1352 171.74 13.255L169.061 15.1371C168.737 15.3711 168.335 15.4684 167.94 15.4079C167.545 15.3475 167.19 15.1341 166.952 14.8142C166.785 14.581 166.599 14.3617 166.396 14.1582C165.42 13.178 164.174 12.509 162.817 12.2358C162.196 12.1125 161.564 12.05 160.931 12.0491C159.739 12.0228 158.559 12.2951 157.499 12.8413C156.554 13.3462 155.727 14.0442 155.072 14.8898C154.424 15.7399 153.94 16.7033 153.646 17.7306C153.341 18.7764 153.186 19.8603 153.186 20.9497C153.183 22.1004 153.367 23.2439 153.732 24.3354C154.074 25.3831 154.605 26.3595 155.299 27.2165C155.976 28.044 156.818 28.7212 157.772 29.2045C158.78 29.7023 159.892 29.9531 161.017 29.9361C161.659 29.9334 162.299 29.8555 162.923 29.704C163.581 29.5497 164.215 29.3088 164.809 28.9875C165.42 28.6618 165.977 28.245 166.462 27.7513C166.665 27.5406 166.85 27.3146 167.018 27.0752C167.243 26.7578 167.581 26.5388 167.963 26.4637C168.346 26.3885 168.742 26.4629 169.071 26.6716L172.018 28.4073C172.198 28.5106 172.354 28.6496 172.478 28.8157C172.601 28.9817 172.69 29.1713 172.737 29.3728C172.784 29.5742 172.79 29.7832 172.753 29.9868C172.716 30.1905 172.638 30.3844 172.524 30.5567C172.165 31.106 171.746 31.6137 171.275 32.0705C170.38 32.9449 169.357 33.6782 168.242 34.2452C167.084 34.8336 165.86 35.2824 164.597 35.5823C163.364 35.8831 162.099 36.0372 160.83 36.0414C158.78 36.0636 156.752 35.6129 154.905 34.7245C153.143 33.8768 151.564 32.6922 150.259 31.2379C148.955 29.7915 147.927 28.1191 147.226 26.3032C146.534 24.5119 146.184 22.6071 146.195 20.6874V20.6874Z" fill="#474948"/>
<path d="M180.552 6.7309L186.805 16.6003L193.064 6.7309C193.135 6.61787 193.233 6.52471 193.35 6.46025C193.466 6.39579 193.598 6.36216 193.731 6.36256H199.186C199.33 6.36175 199.472 6.40052 199.596 6.47465C199.72 6.54879 199.821 6.65543 199.888 6.78296C199.956 6.91049 199.987 7.054 199.978 7.19786C199.969 7.34172 199.921 7.48039 199.838 7.59876L190.384 21.4038L199.53 34.8152C199.611 34.9344 199.657 35.0732 199.665 35.2168C199.673 35.3605 199.641 35.5035 199.574 35.6306C199.506 35.7576 199.405 35.8639 199.282 35.9381C199.158 36.0122 199.017 36.0514 198.873 36.0514H193.403C193.268 36.0517 193.135 36.0175 193.018 35.9521C192.9 35.8868 192.801 35.7924 192.73 35.6781L186.805 26.2376L180.885 35.6579C180.814 35.7719 180.715 35.866 180.597 35.9313C180.48 35.9966 180.347 36.031 180.213 36.0313H174.697C174.553 36.0312 174.412 35.9921 174.288 35.9179C174.165 35.8438 174.064 35.7374 173.996 35.6104C173.929 35.4833 173.897 35.3403 173.905 35.1967C173.913 35.053 173.959 34.9142 174.04 34.7951L183.165 21.4038L173.712 7.59876C173.629 7.48039 173.581 7.34172 173.572 7.19786C173.563 7.054 173.594 6.91049 173.661 6.78296C173.729 6.65543 173.83 6.54879 173.954 6.47465C174.077 6.40052 174.219 6.36175 174.364 6.36256H179.879C180.013 6.36178 180.146 6.3952 180.263 6.45965C180.381 6.52411 180.48 6.61747 180.552 6.7309V6.7309Z" fill="#474948"/>
<path d="M46.9807 36.0311C44.9858 36.0646 43.0042 35.701 41.1517 34.9614C39.5257 34.3024 38.054 33.3146 36.8292 32.0602C35.6586 30.8462 34.7531 29.403 34.1701 27.8218C32.9609 24.5662 32.9609 20.9859 34.1701 17.7304C34.7531 16.1492 35.6586 14.7059 36.8292 13.492C38.0595 12.2454 39.5298 11.2602 41.1517 10.5958C43.0003 9.84041 44.9834 9.4679 46.9807 9.50085C48.9716 9.4654 50.9486 9.83806 52.7894 10.5958C54.4042 11.2733 55.8657 12.2686 57.0866 13.5223C58.2598 14.739 59.1732 16.1809 59.771 17.7607C60.3892 19.371 60.7029 21.0818 60.6962 22.8063C60.7039 24.5287 60.399 26.2382 59.7963 27.852C59.2115 29.4324 58.3062 30.8752 57.1371 32.0904C55.9124 33.3449 54.4407 34.3327 52.8147 34.9917C50.9584 35.7213 48.9752 36.0747 46.9807 36.0311V36.0311ZM41.273 22.7811C41.273 24.7994 41.8089 26.4157 42.8807 27.63C43.3854 28.2191 44.0152 28.6886 44.7244 29.0045C45.4335 29.3205 46.2043 29.4749 46.9807 29.4566C47.7573 29.4586 48.5245 29.2861 49.2253 28.952C49.9104 28.6296 50.5188 28.1652 51.0099 27.5897C51.5364 26.9636 51.941 26.2449 52.203 25.4705C52.5029 24.6006 52.6517 23.6859 52.6428 22.766C52.6428 20.7477 52.1069 19.1314 51.0352 17.9171C50.5387 17.3326 49.9183 16.8655 49.2189 16.5497C48.5194 16.2338 47.7584 16.0769 46.9908 16.0905C46.2175 16.0846 45.4522 16.2473 44.7484 16.5671C44.0447 16.887 43.4193 17.3563 42.916 17.9423C42.3895 18.5683 41.9849 19.2871 41.723 20.0615C41.4179 20.9356 41.2657 21.8555 41.273 22.7811V22.7811Z" fill="#2D83C5"/>
<path d="M79.2952 27.9935C78.7754 28.2462 78.2361 28.4571 77.6825 28.6242C77.0997 28.8143 76.4909 28.913 75.8777 28.9168C75.5628 28.9448 75.2456 28.901 74.9501 28.7888C74.6546 28.6766 74.3885 28.4989 74.1719 28.2691C73.9552 28.0392 73.7937 27.7633 73.6995 27.4621C73.6053 27.1609 73.5809 26.8422 73.628 26.5302V15.8586H78.8655V9.96518H75.5137C75.265 9.96586 75.0187 9.9173 74.789 9.82233C74.5592 9.72735 74.3506 9.58784 74.1752 9.41187C73.9999 9.23591 73.8612 9.02697 73.7673 8.79716C73.6734 8.56735 73.626 8.32123 73.628 8.07304V1.63473C73.628 1.34201 73.546 1.05513 73.3912 0.806489C73.2365 0.557853 73.0151 0.357383 72.7521 0.227736C72.4892 0.0980892 72.1951 0.0444336 71.9032 0.0728334C71.6113 0.101233 71.3332 0.210556 71.1003 0.388447L66.4442 3.94566C66.2523 4.0932 66.0969 4.28275 65.9899 4.49971C65.883 4.71666 65.8274 4.95522 65.8274 5.197V8.07304C65.8274 8.56952 65.6298 9.04566 65.2781 9.39672C64.9263 9.74778 64.4493 9.945 63.9518 9.945H62.5565V15.8586H65.8274V29.2145C65.8002 30.2959 65.991 31.3718 66.3886 32.3782C66.7131 33.1962 67.2339 33.9221 67.9052 34.4923C68.5719 35.0389 69.3474 35.4379 70.1802 35.6629C71.0772 35.9117 72.0044 36.0357 72.9354 36.0313C74.3462 36.0307 75.75 35.8337 77.1062 35.446C78.3593 35.0988 79.5901 34.6759 80.7916 34.1795L79.2952 27.9935Z" fill="#2D83C5"/>
<path d="M81.6865 22.7309C81.6807 21.0065 81.9944 19.2958 82.6117 17.6852C83.2114 16.1064 84.1245 14.6648 85.2961 13.4468C86.5212 12.1939 87.9929 11.2078 89.6186 10.5506C91.47 9.80694 93.4521 9.44149 95.4475 9.47585C98.41 9.47585 100.901 10.1015 102.92 11.3528C104.094 12.0692 105.141 12.9745 106.019 14.0321C106.207 14.2708 106.334 14.552 106.388 14.8511C106.442 15.1501 106.422 15.4579 106.329 15.7473C106.236 16.0367 106.074 16.299 105.855 16.5111C105.637 16.7231 105.371 16.8785 105.078 16.9637L101.074 18.1645C100.74 18.2652 100.385 18.2713 100.047 18.1822C99.7099 18.0931 99.4038 17.9123 99.1633 17.66C98.3546 16.7831 97.2444 16.2426 96.0542 16.1463C95.2137 16.0529 94.3629 16.152 93.5666 16.4362C92.7703 16.7203 92.0494 17.182 91.4588 17.7861C90.2859 19.0038 89.6994 20.6554 89.6994 22.741C89.6877 23.6776 89.8364 24.6093 90.1393 25.4959C90.4035 26.2747 90.8173 26.9945 91.3576 27.6151C91.8673 28.1922 92.4924 28.6563 93.1928 28.9775C93.8863 29.3068 94.6441 29.4791 95.4121 29.482C96.3487 29.4819 97.2683 29.2329 98.0764 28.7605C98.5177 28.5075 98.9183 28.1894 99.2644 27.817C99.5034 27.5593 99.8111 27.3749 100.151 27.2855C100.492 27.1962 100.85 27.2055 101.185 27.3124L105.154 28.5435C105.444 28.6305 105.708 28.7867 105.924 28.9985C106.139 29.2104 106.3 29.4715 106.391 29.7593C106.483 30.0471 106.503 30.3529 106.449 30.6501C106.396 30.9473 106.271 31.227 106.084 31.465C105.203 32.5223 104.15 33.4246 102.97 34.1342C100.683 35.4572 98.0697 36.1144 95.4273 36.0313C93.4449 36.0636 91.4767 35.691 89.6438 34.9364C88.0167 34.2593 86.5405 33.2663 85.3012 32.015C84.1174 30.8017 83.1951 29.3593 82.5914 27.7766C81.9812 26.1646 81.6744 24.454 81.6865 22.7309V22.7309Z" fill="#2D83C5"/>
<path d="M135.421 16.2723C135.246 15.1697 134.856 14.112 134.274 13.1591C133.673 12.1984 132.834 11.4092 131.837 10.8684C130.545 10.216 129.108 9.90504 127.661 9.96519C125.884 9.94508 124.131 10.3738 122.565 11.2115H122.515C122.14 11.4237 121.717 11.5345 121.286 11.5327C120.856 11.5309 120.433 11.4167 120.06 11.2014C119.688 10.9861 119.378 10.6772 119.162 10.3054C118.946 9.93366 118.831 9.51194 118.829 9.08219V1.57924C118.828 1.28688 118.746 1.00056 118.591 0.752351C118.436 0.504147 118.215 0.303869 117.953 0.17396C117.69 0.044051 117.397 -0.0103568 117.105 0.0168335C116.814 0.0440238 116.535 0.151738 116.301 0.327906L111.65 3.88512C111.458 4.03136 111.302 4.21982 111.194 4.43593C111.086 4.65203 111.03 4.88999 111.029 5.13141V36.0313H118.839V21.3685C119.058 20.701 119.388 20.075 119.815 19.5167C120.216 18.9826 120.681 18.4996 121.2 18.0787C121.672 17.6974 122.196 17.3864 122.757 17.1553C123.229 16.9612 123.733 16.8552 124.244 16.8425C124.751 16.8188 125.258 16.9115 125.724 17.1135C126.19 17.3156 126.604 17.6216 126.933 18.008C127.585 18.7901 127.909 20.0263 127.909 21.6662V36.0313H135.714V19.6782C135.716 18.5365 135.618 17.397 135.421 16.2723V16.2723Z" fill="#2D83C5"/>
</g>
<defs>
<clipPath id="clip0">
<rect width="200" height="36.0313" fill="white"/>
</clipPath>
</defs>
</svg>
