<svg width="396" height="72" viewBox="0 0 396 72" fill="none" xmlns="http://www.w3.org/2000/svg">
<g clip-path="url(#clip0_1_32)">
<path d="M3.64 6.73999H0V71.42H3.64V6.73999Z" fill="#5C2D89"/>
<path d="M10.9 6.73999H7.27V71.42H10.9V6.73999Z" fill="#5C2D89"/>
<path d="M18.17 6.73999H14.54V71.42H18.17V6.73999Z" fill="#5C2D89"/>
<path d="M43.63 6.73999H39.99V71.42H43.63V6.73999Z" fill="#5C2D89"/>
<path d="M50.9 6.73999H47.26V71.42H50.9V6.73999Z" fill="#5C2D89"/>
<path d="M58.17 6.73999H54.53V71.42H58.17V6.73999Z" fill="#5C2D89"/>
<path d="M10.85 6.73999L10.91 6.77999V10.94L8.28 8.80999L10.85 6.73999Z" fill="#5C2D89"/>
<path d="M43.63 33.25V37.41L39.99 34.47L14.54 13.88V9.72L43.63 33.25Z" fill="#5C2D89"/>
<path d="M50.9 39.13V43.29L47.26 40.35V36.19L50.9 39.13Z" fill="#5C2D89"/>
<path d="M58.17 45.02V49.18L54.53 46.23V42.07L58.17 45.02Z" fill="#5C2D89"/>
<path d="M3.14 12.97L3.64 12.58V13.38L3.14 12.97Z" fill="#5C2D89"/>
<path d="M7.27 12.16L10.91 15.1V19.26L7.27 16.32V12.16Z" fill="#5C2D89"/>
<path d="M39.99 38.63L43.63 41.57V45.73L39.99 42.79L18.18 25.14L14.54 22.2V18.04L39.99 38.63Z" fill="#5C2D89"/>
<path d="M50.9 47.45V51.61L47.26 48.67V44.51L50.9 47.45Z" fill="#5C2D89"/>
<path d="M58.17 53.34V57.5L54.53 54.55V50.39L58.17 53.34Z" fill="#5C2D89"/>
<path d="M0.57 15.06L3.64 17.54V21.69L0 18.75V15.52L0.57 15.06Z" fill="#5C2D89"/>
<path d="M7.27 20.48L10.91 23.42V27.58L7.27 24.64V20.48Z" fill="#5C2D89"/>
<path d="M39.99 46.95L43.63 49.89V54.05L39.99 51.11L14.54 30.52V26.36L18.18 29.3L39.99 46.95Z" fill="#5C2D89"/>
<path d="M50.9 55.77V59.93L47.26 56.99V52.83L50.9 55.77Z" fill="#5C2D89"/>
<path d="M57.09 60.79L54.53 62.86V58.71L57.09 60.79Z" fill="#5C2D89"/>
<path d="M289.18 41C289.197 37.3875 289.875 33.8085 291.18 30.44C292.49 26.9626 294.46 23.7708 296.98 21.04C299.6 18.2198 302.75 15.9431 306.25 14.34C310.153 12.576 314.398 11.6983 318.68 11.77C323.687 11.655 328.633 12.8881 333 15.34C335.904 16.9894 338.429 19.2312 340.41 21.92C340.653 22.2504 340.828 22.6258 340.924 23.0244C341.021 23.423 341.037 23.8368 340.972 24.2417C340.906 24.6466 340.761 25.0344 340.545 25.3827C340.328 25.7309 340.044 26.0325 339.71 26.27L334.41 30C333.771 30.4637 332.974 30.6566 332.194 30.5368C331.413 30.417 330.711 29.9941 330.24 29.36C329.909 28.898 329.541 28.4632 329.14 28.06C327.209 26.1174 324.745 24.7914 322.06 24.25C320.832 24.0056 319.582 23.8817 318.33 23.88C315.971 23.8278 313.637 24.3676 311.54 25.45C309.672 26.4506 308.037 27.8341 306.74 29.51C305.458 31.1947 304.501 33.1041 303.92 35.14C303.316 37.2128 303.009 39.3609 303.01 41.52C303.003 43.8005 303.368 46.0668 304.09 48.23C304.767 50.3064 305.817 52.2416 307.19 53.94C308.527 55.58 310.193 56.9221 312.08 57.88C314.074 58.8666 316.275 59.3637 318.5 59.33C319.77 59.3246 321.036 59.1702 322.27 58.87C323.571 58.5642 324.825 58.0867 326 57.45C327.208 56.8045 328.311 55.9783 329.27 55C329.671 54.5824 330.038 54.1344 330.37 53.66C330.815 53.0309 331.484 52.5969 332.24 52.448C332.996 52.299 333.78 52.4466 334.43 52.86L340.26 56.3C340.615 56.5048 340.925 56.7803 341.169 57.1094C341.414 57.4385 341.589 57.8143 341.682 58.2135C341.776 58.6127 341.787 59.0269 341.714 59.4305C341.642 59.8341 341.487 60.2185 341.26 60.56C340.551 61.6486 339.722 62.6549 338.79 63.56C337.02 65.293 334.997 66.7463 332.79 67.87C330.5 69.0362 328.08 69.9258 325.58 70.52C323.141 71.1163 320.641 71.4217 318.13 71.43C314.075 71.4739 310.064 70.5807 306.41 68.82C302.924 67.1399 299.802 64.7923 297.22 61.91C294.64 59.0434 292.606 55.7288 291.22 52.13C289.852 48.5798 289.16 44.8048 289.18 41Z" fill="#E37625"/>
<path d="M357.14 13.34L369.51 32.9L381.89 13.34C382.03 13.116 382.224 12.9313 382.455 12.8036C382.686 12.6758 382.946 12.6092 383.21 12.61H394C394.286 12.6084 394.566 12.6852 394.811 12.8321C395.056 12.9791 395.256 13.1904 395.389 13.4432C395.522 13.6959 395.583 13.9803 395.566 14.2654C395.548 14.5506 395.453 14.8254 395.29 15.06L376.59 42.42L394.68 69C394.84 69.2361 394.932 69.5112 394.948 69.7959C394.963 70.0806 394.9 70.364 394.767 70.6159C394.633 70.8677 394.433 71.0784 394.189 71.2253C393.945 71.3723 393.665 71.4499 393.38 71.45H382.56C382.294 71.4505 382.031 71.3827 381.799 71.2532C381.566 71.1236 381.37 70.9366 381.23 70.71L369.51 52L357.8 70.67C357.659 70.896 357.463 71.0825 357.231 71.2119C356.998 71.3414 356.736 71.4095 356.47 71.41H345.56C345.275 71.41 344.995 71.3323 344.751 71.1853C344.507 71.0384 344.307 70.8277 344.173 70.5759C344.04 70.324 343.977 70.0406 343.992 69.7559C344.008 69.4712 344.1 69.1961 344.26 68.96L362.31 42.42L343.61 15.06C343.447 14.8254 343.352 14.5506 343.334 14.2654C343.317 13.9803 343.378 13.6959 343.511 13.4432C343.644 13.1904 343.844 12.9791 344.089 12.8321C344.334 12.6852 344.614 12.6084 344.9 12.61H355.81C356.075 12.6084 356.337 12.6747 356.57 12.8024C356.802 12.9302 356.999 13.1152 357.14 13.34Z" fill="#E37625"/>
<path d="M92.93 71.41C88.984 71.4764 85.0643 70.7557 81.4 69.29C78.1837 67.9839 75.2726 66.0262 72.85 63.54C70.5343 61.1341 68.7432 58.2738 67.59 55.14C65.1982 48.6878 65.1982 41.5921 67.59 35.14C68.7432 32.0062 70.5343 29.1459 72.85 26.74C75.2835 24.2694 78.1919 22.3169 81.4 21C85.0566 19.503 88.9793 18.7647 92.93 18.83C96.8681 18.7597 100.779 19.4983 104.42 21C107.614 22.3427 110.505 24.3153 112.92 26.8C115.241 29.2113 117.047 32.0692 118.23 35.2C119.453 38.3916 120.073 41.7822 120.06 45.2C120.075 48.6134 119.472 52.0015 118.28 55.2C117.123 58.332 115.332 61.1916 113.02 63.6C110.597 66.0862 107.686 68.0439 104.47 69.35C100.798 70.796 96.8753 71.4963 92.93 71.41ZM81.64 45.15C81.64 49.15 82.7 52.3533 84.82 54.76C85.8184 55.9274 87.0642 56.8579 88.467 57.4841C89.8697 58.1102 91.3943 58.4163 92.93 58.38C94.4663 58.3839 95.9837 58.0422 97.37 57.38C98.7252 56.7411 99.9286 55.8207 100.9 54.68C101.941 53.4393 102.742 52.0148 103.26 50.48C103.853 48.7559 104.148 46.9432 104.13 45.12C104.13 41.12 103.07 37.9167 100.95 35.51C99.968 34.3516 98.7408 33.426 97.3573 32.7999C95.9737 32.1739 94.4683 31.8631 92.95 31.89C91.4204 31.8783 89.9067 32.2007 88.5146 32.8346C87.1224 33.4685 85.8855 34.3986 84.89 35.56C83.8485 36.8007 83.0481 38.2252 82.53 39.76C81.9265 41.4923 81.6255 43.3156 81.64 45.15Z" fill="#5C2D89"/>
<path d="M156.85 55.48C155.822 55.981 154.755 56.399 153.66 56.73C152.507 57.1067 151.303 57.3024 150.09 57.31C149.467 57.3655 148.84 57.2787 148.255 57.0563C147.671 56.834 147.144 56.4817 146.716 56.0262C146.287 55.5707 145.968 55.0239 145.781 54.4269C145.595 53.8299 145.547 53.1984 145.64 52.58V31.43H156V19.75H149.37C148.878 19.7513 148.391 19.6551 147.936 19.4669C147.482 19.2787 147.069 19.0022 146.722 18.6534C146.376 18.3047 146.101 17.8906 145.915 17.4351C145.73 16.9797 145.636 16.4919 145.64 16V3.24001C145.64 2.65987 145.478 2.09129 145.172 1.59852C144.865 1.10575 144.428 0.708441 143.907 0.451495C143.387 0.194549 142.806 0.0882099 142.228 0.144495C141.651 0.20078 141.101 0.417446 140.64 0.770006L131.43 7.82001C131.05 8.11241 130.743 8.48808 130.531 8.91805C130.32 9.34803 130.21 9.82082 130.21 10.3V16C130.21 16.984 129.819 17.9276 129.123 18.6234C128.428 19.3191 127.484 19.71 126.5 19.71H123.74V31.43H130.21V57.9C130.156 60.0433 130.534 62.1755 131.32 64.17C131.962 65.7912 132.992 67.23 134.32 68.36C135.639 69.4433 137.173 70.2341 138.82 70.68C140.594 71.1731 142.428 71.4188 144.27 71.41C147.061 71.4089 149.837 71.0185 152.52 70.25C154.999 69.5621 157.433 68.7238 159.81 67.74L156.85 55.48Z" fill="#5C2D89"/>
<path d="M161.58 45.05C161.569 41.6324 162.189 38.2421 163.41 35.05C164.596 31.921 166.402 29.0639 168.72 26.65C171.143 24.167 174.054 22.2126 177.27 20.91C180.932 19.4362 184.853 18.7119 188.8 18.78C194.66 18.78 199.587 20.02 203.58 22.5C205.902 23.9197 207.974 25.714 209.71 27.81C210.083 28.2831 210.334 28.8404 210.441 29.4331C210.548 30.0258 210.508 30.6357 210.324 31.2093C210.14 31.7829 209.819 32.3027 209.387 32.723C208.956 33.1433 208.428 33.4513 207.85 33.62L199.93 36C199.269 36.1994 198.566 36.2115 197.898 36.035C197.231 35.8584 196.626 35.5001 196.15 35C194.55 33.2621 192.354 32.1909 190 32C188.337 31.8149 186.655 32.0114 185.079 32.5746C183.504 33.1377 182.078 34.0528 180.91 35.25C178.59 37.6633 177.43 40.9367 177.43 45.07C177.407 46.9263 177.701 48.7729 178.3 50.53C178.823 52.0734 179.641 53.5 180.71 54.73C181.718 55.8737 182.955 56.7935 184.34 57.43C185.712 58.0827 187.211 58.4242 188.73 58.43C190.582 58.4298 192.401 57.9362 194 57C194.873 56.4985 195.665 55.8681 196.35 55.13C196.823 54.6193 197.431 54.2539 198.104 54.0768C198.777 53.8997 199.487 53.9181 200.15 54.13L208 56.57C208.573 56.7423 209.096 57.0519 209.522 57.4717C209.949 57.8916 210.266 58.4092 210.447 58.9796C210.629 59.55 210.668 60.1559 210.562 60.745C210.456 61.3341 210.208 61.8884 209.84 62.36C208.097 64.4555 206.015 66.2437 203.68 67.65C199.155 70.272 193.987 71.5745 188.76 71.41C184.839 71.474 180.946 70.7355 177.32 69.24C174.101 67.8981 171.181 65.93 168.73 63.45C166.388 61.0455 164.564 58.1867 163.37 55.05C162.163 51.8553 161.556 48.4651 161.58 45.05Z" fill="#5C2D89"/>
<path d="M267.87 32.25C267.524 30.0647 266.753 27.9685 265.6 26.08C264.412 24.176 262.752 22.6119 260.78 21.54C258.225 20.2471 255.381 19.6308 252.52 19.75C249.005 19.7101 245.538 20.5598 242.44 22.22H242.34C241.599 22.6406 240.762 22.8601 239.91 22.8566C239.058 22.8531 238.222 22.6268 237.485 22.2001C236.748 21.7734 236.135 21.1612 235.708 20.4243C235.281 19.6875 235.054 18.8517 235.05 18V3.12999C235.048 2.55057 234.885 1.98311 234.579 1.49119C234.273 0.999282 233.835 0.602354 233.316 0.344889C232.797 0.0874243 232.217 -0.0204056 231.64 0.0334824C231.063 0.0873705 230.512 0.300847 230.05 0.649992L220.85 7.69999C220.469 7.98983 220.16 8.36333 219.947 8.79163C219.734 9.21992 219.622 9.69153 219.62 10.17V71.41H235.07V42.35C235.503 41.0271 236.155 39.7864 237 38.68C237.793 37.6214 238.713 36.6643 239.74 35.83C240.673 35.0743 241.71 34.4579 242.82 34C243.754 33.6153 244.75 33.4052 245.76 33.38C246.764 33.333 247.766 33.5168 248.688 33.9172C249.61 34.3177 250.429 34.9241 251.08 35.69C252.37 37.24 253.01 39.69 253.01 42.94V71.41H268.45V39C268.453 36.7374 268.259 34.4789 267.87 32.25Z" fill="#5C2D89"/>
</g>
<defs>
<clipPath id="clip0_1_32">
<rect width="395.61" height="71.41" fill="white"/>
</clipPath>
</defs>
</svg>
